<svg width="32" height="32" viewBox="0 0 32 32" fill="none" xmlns="http://www.w3.org/2000/svg">
<path d="M29.3333 24.0067C29.3333 24.74 28.7386 25.3334 28.0066 25.3334H17.3266C16.9748 25.3334 16.6373 25.1936 16.3886 24.9448C16.1398 24.696 16 24.3586 16 24.0067C16 23.6549 16.1398 23.3174 16.3886 23.0686C16.6373 22.8198 16.9748 22.68 17.3266 22.68H28.0066C28.3585 22.68 28.6959 22.8198 28.9447 23.0686C29.1935 23.3174 29.3333 23.6549 29.3333 24.0067Z" fill="white"/>
<path d="M29.3333 16C29.3333 16.7333 28.7386 17.3267 28.0066 17.3267H3.99331C3.64146 17.3267 3.30401 17.1869 3.05522 16.9381C2.80642 16.6893 2.66665 16.3518 2.66665 16C2.66665 15.6481 2.80642 15.3107 3.05522 15.0619C3.30401 14.8131 3.64146 14.6733 3.99331 14.6733L28.0066 14.6733C28.3585 14.6733 28.6959 14.8131 28.9447 15.0619C29.1935 15.3107 29.3333 15.6481 29.3333 16Z" fill="white"/>
<path d="M28.0066 9.32007C28.3585 9.32007 28.6959 9.1803 28.9447 8.9315C29.1935 8.6827 29.3333 8.34526 29.3333 7.99341C29.3333 7.64155 29.1935 7.30411 28.9447 7.05531C28.6959 6.80651 28.3585 6.66674 28.0066 6.66674L11.9933 6.66674C11.6415 6.66674 11.304 6.80651 11.0552 7.05531C10.8064 7.30411 10.6666 7.64155 10.6666 7.99341C10.6666 8.34526 10.8064 8.6827 11.0552 8.9315C11.304 9.1803 11.6415 9.32007 11.9933 9.32007L28.0066 9.32007Z" fill="white"/>
</svg>
